<svg xmlns="http://www.w3.org/2000/svg" id="svg2" x="0" y="0" version="1.1" viewBox="0 0 231 63" xml:space="preserve">
  <defs/>
  <g id="g10" transform="translate(-236 -116)">
    <g id="g12" transform="scale(.1)">
      <path id="path16" d="M4656 1528l1-1-2-1-1 1c0 1 1 2 2 1zm-5 15l-1 3c0 2 0 2 2 0 1-2 1-4-1-3zm-22-41c1-2 1-4-1-3h-1c-1-1-2-2-3-1-3 1-3 1 0 2l1 2 1 1 3-1zm7-20l4 1c1 2 3 1 3-1-1-1-1-2-2-1h-5c-2 2-2 2 0 1zm-31-28l-2-1c-2 0-3 1-2 2 0 2 1 3 3 2 2 0 3-1 2-2l-1-1zm-7-23l1-2-2-1c-1 1-2 1-1 2l2 1zm-37-44l-1-1-2 1 2 1c1 0 2 0 1-1zm-191-132c2-2 1-2-3-1-3 0-3 1-1 1h4zm2 5c2 0 3-2 2-3l-2 2v1zm-391 444l-3 2h3l2-1-2-1zm-9-10h-2l2 1 1-1h-1zm-18 19l-3-2c-1-1-1 0 0 0v2c-2 0-5-1-6-3s-1-2-1 0c1 2 1 3-1 3-1 0-2 0-2 2s1 2 5 1c2-1 5-2 7-1 2 0 2 0 1-2zm-32-13l-1 1 2 1 1-1-2-1zm-8 1c-2 0-3 0-2 1h5l-3-1zm-21-172l-1 2h2l1-1-2-1zm-148-224c-3 0-5 0-4 1 2 2 7 2 7 0l-3-1zm-19 7l-3 1 4 1c4 0 3-2-1-2zm-10 5c-5 1-6 1-4 2h8c8-1 5-2-4-2zm-9-6h-25c0 1 8 5 11 4h9c2 1 9-1 9-2l-4-2zm-20-28h-8l-5 1c-1-1-2 0-3 1l-3 1-3-1c-4 1-4 3 0 3l20-2c6 0 7-2 2-3zm-29 29l-10 1-1 2c0 3 1 3 9 2a98 98 0 0120 0v-4c-1-3-2-3-6-3l-12 2zm-7-22c-4 1-3 4 1 3 2 0 3 0 3-2l-4-1zm-6 4h-5l-3 3-1 1-4-2c-10 1-11 1-10 3l3 1h6c8 0 9 0 10-2h2c1 1 2 1 3-1 1-1 1-2-1-3zm-31 3l-8-1-9 3 17 1h6c2-2-1-4-6-3zm20 16c1 2 8 4 9 3 2-2 2-2-3-3h-6zm52-14c2-1-1-2-7-2-3 0-4 1-4 2h11zm197-20l1-1h-3l2 1zm5 0l2 1c2-1 1-1-1-2-1 0-2 0-1 1zm5 4c1 1 1 0 2-1 1-2 0-3-2-1v2zm5 0l1-2-1-1-1 2 1 1zm-328 22l-4-1h-1l-1-1h-4-6a650 650 0 00-36-1c1 1 1 2-3 2-3 0-4 0-3 2s1 2 3 1h5c5 1 18 0 20-2h2c0 2 1 3 2 1 0-2 1-2 1 0 1 2 4 3 7 1l7-1 8 1c4-1 5-1 3-2zm-92 3l-8-1-6 2 4 1 7-1c4 0 5-1 3-1zm-12-4l-2-1v2h2v-1zm-9 3h-3c-1 1 2 3 4 2 3 0 2-2-1-2zm-20-3l-2-1h-8c0 2 9 4 11 3l1-1-2-1zm-14 2l-3 1h2c2 0 2-1 1-1zm-14-3c-3 0-5 1-5 2h1l7-1 7-1h-10zm-10 0c-2 1-2 2 0 3s3 1 3-1c1-2 0-3-3-2zm-18 469l-2-1-1 1c0 1 1 2 2 1l1-1zm-4-476c-3-1-3-1-2 1l3 2c2 0 2-2-1-3zm-5 0l-2-1c-2 1-1 2 1 3 2 0 2-1 1-2zm-56 5l-3-1-1 1 3 1 1-1zm-35-12c-2 0-3 0-1 1h2c3-2 2-2-1-1zm-194 41l-3-1-1 2c1 1 2 2 4 1 2 0 2 0 0-2zm-7-22l-2-2c-1 2-4 2-4 0-1-3-6-3-7-1s-1 3 1 4l1 1a50 50 0 01-4 2c-1 1 0 1 2 2 3 0 4-2 2-6-1-2-1-2 1-3l2 1c-1 1 6 6 7 6l1-4zm-10 466c1 0 1 0 0 0l-1-2-1-1c-2 1 0 3 2 3zm3-3c2 0 3 1 3 2h1c2-2-1-6-4-6-4 0-4 2 0 4zm-52-8l-2 1 2 1 2-1-2-1zm-19 4l-1 1 1 1 2-1-2-1zm-20-411h-5c-1 1-6 0-11-1l-9-1 11 6 6 1 7-1c5 0 6-3 1-4zm-28 405h-1l2 2 1-1-2-1zm-1-407l-3 1c-1 1 2 2 4 2 3-1 2-2-1-3zm-6-3l-1 1 2 1 1-1-2-1zm-9 0l-2-1h-2c-1 1-2 2-3 1l-6-1-4-1h-4c-4 1-4 1-3 3l3 2c2 1 2 3-1 2l-6-1h-12c-3-1-11-1-10 1v4c0 2 0 2 2 1h32c5 0 5-4 1-4l-4-2c0-2 0-2 3-1 2 0 3 1 3 2h3l7-1c3 0 4 0 4-2 2-3 1-3-1-2zm-31-2l-3-1-2-1-2-1c-2 1-1 2 2 4s5 1 5-1zm-22 8v-2c-1 0-3-2-3-4-1-4-4-4-13-3-2 1-3 1-1 2l4 1c2 0 4 0 6 2 3 2 3 2 0 1h-7l-5-1-5-1h-7l-1-1h-1c-1 1 5 4 8 4h6l2 1c1 2 2 2 3 2h15l-1-1zm-22-11l-3 2h6c3-1 0-3-3-2zm-8 3c0-1-1-3-3-3-3-1-3-1-3 1l2 1 3 1h1zm-9-4h-3l-5-2h-5l-3 1c1 2 15 4 17 3v-2h-1zm-16-22l-6-1-3-1c0-1-5 0-6 2 0 2 2 3 7 3 8 0 8 0 6 1l-2 1h-3c-2 2 2 3 6 2 3 0 4-1 3-2v-1c3-1 1-3-2-4zm-10 164l1-1-2-1-1 1 2 1zm15 261c2-1-1-2-6-2h-5l11 2zm-33-424c-4-2-5-1-5 1 1 2 5 4 8 3 3 0 1-3-3-4zm-19-6h-4c-4-2-9-2-8 0 0 2 5 4 10 3l4-2-2-1zm-37 45h-3c-1 1 2 3 4 3 3-1 2-3-1-3zm-35-36l-1 1 1 1 1-1-1-1zm-85-12l-4-3c-2 0-1 2 3 5l5 2-4-4zm3-25l-3-3v2l3 3v-2zm-2-8v3c1 1 1 0 1-1l-1-2zm-5 1l-3 2v2c1 2 1 2 3-1s2-5 0-3zm3 383l-2-1-1 3v2c-1 0-2 0-1 1 1 3 4-1 4-5zm2 32c0 2 1 2 2 1 1-2 0-4-2-4v3zm-11-39l-2 1 2 1 2-2h-2zm-4-26l-1 1h2c2-1 1-2-1-1zm0-326c-2 1-2 3 0 3l1-4-1 1zm-4 333l-1 3c0 2 1 2 2 2 2-1 1-6-1-5zm-1-325c-2-1-2 0-4 2-1 2-1 2 1 1l3-1c-1-1 0-1 1-1l-1-1zm-1-6v3c1 0 2-1 1-2l-1-1zm-1-10v3l2-1-2-2zm-3 4c-2 0-2 0 0 1 2 2 3 2 3 0l-3-1zm1 316h2l1-1-2-1c-1 0-2 1-1 2zm2 15c1-2 1-3-1-2v3l1-1zm-9-316l-4-2h-2c1 2 5 4 7 3l-1-1zm-18 19l-1-3c-1-1-1-2-2-1l-1 1v2l-1-1-2 1v4l4 2c3 0 5-3 3-5zm-20 0l-1 1h3l-2-1zm-82 20l-3 1-1 3 1-1 1-1h1l1-2zm-9-2l-1 2 1 2 1-2-1-2zm-3 4l-2 1 1 1 2-1-1-1zm-30 37h-1l2 1 1-1h-2zm-9-33c-3-1-3 0 0 1h2l-2-1zm1-10l-2-1-1 2h2l1-1zm-10-1l-1 1v1l-1 1c1 1 5-1 5-2l-3-1zm-9 2l-2 1c-1 1-1 2 1 1 2 0 4-2 1-2zm-1 18h1l-1-2v2zm-9-16c-2 2-1 2 2 0l1-2-3 2zm-5 17l-1 1h3l-2-1zm-1-3h1l1-1-2 1zm-6 0c-1 2-1 2 1 1l1-2-2 1zm16 23l-1 2 1 1v-3zm-17 0l-4-1v1l4 1c2 0 2 0 0-1zm19 92c-7 0-7 0-4 6l2-2 4-1 2-1-4-2zm-8-36c-2 0-3 1-2 2l2 2v-2l1-1 2-1h-3zm-9-18c-1-1-1-2-2-1l1 2c1 1 1 0 1-1zm-9 85l-1 2c0 1 1 2 2 1l1-2-2-1zm2290 31l-1-1h-6c-5 1-6 1-6 3l6 1 5-2 2-1c3 1 3 2 0 4l-4 4c0 2 0 2-2 1-3-1-3 0-1 2 1 2 1 2-6 3l-16 5-15 6a1119 1119 0 01-117 39l-17 5a2655 2655 0 01-321 73 1649 1649 0 01-130 22 504 504 0 01-77 8c0 1-1 2-3 2s-3 0-3-2l-1-2c-5 0-10 2-12 5-2 2-3 2-5 0h-2v3l-4-2h-2c1 1 0 2-2 2h-3l-4-1-5 3c1 1-12 2-14 1v1c0 2 0 2-1 1-2-1-4-1-11 1-9 2-10 2-8 0 1-2 0-2-2-1-5 3-25 6-29 5l-17 2c-14 3-20 3-36 4l-17 2c-7 2-11 2-10 1 0-1-8 1-10 3h-10c1 1-1 2-3 2-3 1-4 0-4-1 1-2-2-2-5 1l-4 2-9 1-10 1-3-1-8 1c-10 0-17 2-16 3l-2 2-4-1-3-1h-7c-1 2-4 3-7 1-2-1-17 0-18 1l-3 1h-26c-1-1-5-2-10-1-8 1-8 2-7 3s0 2-1 1l-2-1h-1l-4-1c-4-2-17 1-15 3s-7 4-9 2c-1-1-1-1 0 0 0 3-6 5-7 2-1-1-2 0-2 1-1 2-1 2-3 1h-7l-4-1h-6c0 1-1 2-3 2l-3-1-2-1-5 1h-14c0 1-1 2-2 1l-10 1-9 1-4-1-11 1h-21c1-1 0-1-1-1l-9 2c-8 0-14 1-14 2l-2 1a205 205 0 00-43 0h-23l-9 1c-2-1-11 0-9 1l4 1h3c1 1 0 1-2 1h-6l-2-1c0-1-3-2-7-2l-11-2c-3-1-8-2-11-1s-7-1-9-1c-4-1-4-1-4 1l-3 1h-5c-1 2 0 2 6 2l8 1-7 1h-10l-6 1h-10c-5 0-12-2-16-4-2-2-2-2-4 0l-3 2-1 2c0 1 1 2 2 1l1 2 3 1 8 1h29c7 0 10 0 13 2h5c-1 2-6 2-7 0h-20l-6 1h-12l-10-1-3-1h-11l2-2c3-2 2-5-2-5l-4-1-3-1h-8l-15-1-7-1-3-1-4 1h-3c-2 1-3 1-4-1 0-2-1-3-2-3l-1 2h-6c1-2-4-3-8-1-3 1-4 1-4-1h-1l-2 2-1-2c0-1-2-2-6-2l-8-1c-3-1-4 0-3 2 0 1 1 2 3 2 2 1 2 1-1 1l-7-1-20-2a71 71 0 00-14 0h-6l-3-1h-12c-5 0-6 3-1 3 3 0 8 4 6 4l-2-1c0-1-6-2-10-1l-1-2-2 1c-3 3-3 4-1 2h3c0 2 0 2-8 1-4 0-7-1-7-2h-1l-2-1c1-2-4-2-6 0-1 1-1 1-2-1h-1c0 2-3 2-7 0-3-2-4-2-5-1h-2c0 2-4 2-5 0l-4-2h-4l-1 2c-1 0-2 0-1-1l-2-2-1 1c1 2-3 2-5 1h-8l-8-1h-10l-5-1-12-2-15-1c-4 0-6 0-7-2l-3-1h-7l-8-1c-2 1-8-1-8-2h-1-5c-4-2-9-1-11 1s-6 2-5 0h2c1 1 2 1 1-1l-9-3-9-1-3-1c-2 1-7 0-11-1-22-4-26-4-25-2 0 1 3 2 7 1l5 1c1 1 2 2 3 1l2 1 4 1c2 0 3 1 1 3-1 1-10 1-14-1l-4-1h-5l-5-1-9-1a321 321 0 00-42-7 431 431 0 00-35-7h-2l-10-1a537 537 0 00-63-11c-4 1-10-1-11-3l-8-3-12-4c-4-1-8-3-9-2l-7-1-4-1v-1h1c2 0 1-2-2-4-3-1-4-2-4-6s-1-6-2-6c-2 0-4-5-2-7 1-2-2-6-6-6-2 0-2 0 0 1s2 2 0 2c-2 2-3 1-4-2l-3-3-1-3-2-3c-3-2-1-7 3-7 2 0 3-1 2-2l-3-1h-3l2-2c1 0 2-1 1-2 0-3-1-3-2 0l-3 2c-2 1-2-3 1-7 2-3 2-5 1-6-1-2-2-8-1-11 2-3 1-4-4-6-3-1-4-3-3-3v-1c-3-1-3-4 1-6 3-3 4-5 1-4l-3-2c0-1 1-2 2-1 2 0 2-1 1-2l-2-3-1 2c-1 2-1 2-3 0v-4c2-2 0-5-2-4l-3-1a617 617 0 01-104-17 772 772 0 01-75-15c-10-2-14-5-16-11 0-2-2-4-4-5l-4-4c0-2-1-3-3-3s-3 0-3-3 0-3-1-1h-1l1-3 1-6v-3l1-1h3c2 0 3-1 5-3 3-3 3-7 0-6h-2l-5-6c-2 0-4 1-2 2 1 1 0 1-2 1-2-1-3-2-4-5s-1-3 2-3 3-1 1-2v-2l1-3-2-2h-2l2-3-1-1c-2-1-4-7-2-8v-2l-1-3v-4c-1-2-1-2 1-1h4c1-1 0-1-2-2l-1-1-2-3-3-3h1l7 2h7l-2-2v-1-4c-2-2-2-3 0-3l3-1h3l5 2c3-1 3-1 0-3h-4c0 1-1 1-1-2-1-2-1-4 1-5 1-1 1-1-2-3-2-1-2-2-1-2 2-1 1-4-1-4l5-3h5l-1 1c-1-1-1 0-1 1 1 2 5 1 4-1v-5c1-4-1-5-4-6s-3-1-1-2h-3c-4 2-5 1-5 0-1-4 0-6 4-5l5-1h4c2 1 4 0 5-1 2-1 2-1-2-2l-4-2-2 1c-1 0-2 0-1-1l2-2c4 0 1-2-5-3-7-1-7-2-7-6-1-3-1-4-2-3h-1c1-2 2-2 4-1 3 1 3 1 1-1-1-3-1-3 3-1 2 2 5 2 6 2l2 1 2 1h4c3 2 7 1 7 0l-6-3-5-2c-1-2-10-6-12-6-1 1-2 1-1 2l-1 1c-2 0-3-2-2-4h-4-3l-6-1-2-1c-3 0-4 0-3-2h3c0-1 1-2 3-2 3-1 3-1 1 2s0 3 3-1c1-1 2-2 4-1l9 1c6 0 6 0 4-1l-5-1v-1h2l4 1c1-1 3 0 3 2 0 1 1 3 3 3l1-1 1-1h3c1 2 6 1 7-1 2-1 1-2-5-4l-8-3h3c5 2 7 2 8 0h-5v-2c3 0 2-4 0-5-2-2-5 0-5 3h-1c-1-2-1-2-3-1h-2c0-1 0-2-1-1-2 0-3 2-1 4 2 1 2 1 1 2l-2-2c-1-2-2-2-4 1h-1c0-2 2-4 4-5l4-3h-4l-4-2-3-2c-4-1-3-3 2-3 3 0 4-1 2-1l-2-2v-1c-3-4-1-9 4-10h1l-2 5c0 4 0 5 2 4l3 1c1 1 2 2 4 1 4-2 4-4 0-3l-3-1h-3c-2 0 1-9 4-10l1 2 2-2c3-4 3-7 1-5l-3-1-4-1h-2c0-2 1-2 5-1l3 1c1-1 2 0 4 2 3 3 8 5 9 4 0-2 9-4 11-3s2-1 1-5l1-2c1 0 2 1 2 4 0 1 4 3 6 2 1-1 2 0 2 2l1 3 1-1c-1-2 6-4 9-3l2 4v1c1-2 8-4 8-2l2 2c2 1 2 1 2-1s6-3 6-1l-2 2c-2 2-2 2 0 2l2-1h4c1-1 1-2-1-4s-2-3-1-4l1 1 2 1 1-1 1-2c1 0 2 1 2 3l1 2 1 3c0 3 0 3 2 1s2-2 1 0 0 5 2 4h5c3 0 4 0 5-2 1-3 1-3-1-4h-4l-2-1-4-4c-2-1-2-2-1-2l2 1 2-4v-5c-1 0-2 0-1 1s1 1-1 1l-2-1c1-1-3-3-4-2l-1-1c0-2 1-2 3-1h14l5 1 4-3c0-3 3-1 5 3 3 4 3 4 7 2h9l2-2 2 1 4 1c3 1 4 0 6-2 3-4 3-4 4 1l3 3c2 1 3 0 4-2 0-2 1-2 1-1 1 2 7 3 6 1l2-1-1-1c-4-1-4-2-2-3l5 2 3 1 3 1c4 1 7 1 6-2-1-2 1-2 3-1 1 1 2 0 2-2 0-1 0-2-1-1s-1 1-3-4l-2-3c-2-1-4 4-3 5v2c-2 0-4-3-3-5 1-1 0-2-1-4l-1-3c2-1 6-1 8 1 1 1 1 1 4-1 2-2 4-8 2-7l-2-1c0-1 7-3 9-2l-1 1-3 9h5c4 0 4 0 5-3 0-4 0-4 3-3l12 1-8-4-4-3c-4-4-5-6-2-5 1 1 2 1 5-1 3-3 3-3 5 0s3-1 1-6c-1-4-1-5 2-6l6-1h4c0-1 5 0 5 2l3 4c2 2 3 2 3 1 0-3 0-3-2-3-2 1-3-2-4-5l-2-2c-3 0-4-4-1-6l4-1 1-2c0-2 0-2 2 0l1 1c-1 0-1 1 1 4v-2c1-4 3-5 4-2l2 1c3-1 9 0 10 1h4c3 0 3 0 4 3l3 5c2 1 3 1 1-1-2-4-1-5 3-4 5 1 6 2 4 5h7l-2-3-2-1c-1 1-2 0-2-1-1-1-1-1 1-2l1-1 1-2 2-1c0-1 1-2 3-2s3 1 4 4c0 4 1 5 2 4h2c0 2 0 2 2 1l2 1c0 1-3 2-5 1h-4c-4 0-4 3 0 3l2 3 3 2 2-2 1-1 2 2-2 1v2c1 2 2 3 6 3l5 1h7l3 1h8l3 1c2-1 11 1 11 2h2l3-1 5 1h9l5 2 3 1 15 5 7 2c2 2 12 4 18 4l7 1 9 1h7c0 2 3 0 4-1 0-1 1-2 2-1 2 0 2 1 2 2h6l2 1c-2-2-1-2 5-1l5-1h1l2 1-1-2h2c5 4 8 5 8 4 1-1 9 1 15 4l8 2h5c1 1 1 1-2 1-10 1-19-1-18-3 1-1-1-1-3-1l-9-1c-7-2-7-2-6 1 0 2 2 3 3 3 2 0 4 1 5 3 1 3 5 4 4 1h1l5 1c3 0 5 1 5 2l1 2c3-1 6-1 7 1 2 2 4 3 8 2l3 1h5l5 1h4c2 2 6 1 6-2-1-2-2-3-6-1l-2-2h5l7 1 1 1h8c2-2 7-1 8 2 2 2 2 2 2 0s1-2 4-1h12c1 1 0 1-2 2-3 0-4 3-1 2h6c4 0 4-1 4-2-2-2-2-2 5-1 4 1 5 2 3 2-2 1-2 1 1 1l3-1h5l4 1-4 1c-2 0-3 1-3 2s7 2 10 1c1-1 2-1 0 0v5l2 2c-1-3 12-4 16-3s4 2 3 3h11c3 0 5 1 4 2h1l3-1 5 1h5c3 1 12 0 12-1l-3-2c-3-1-3-1 0-1l4-1 1-2 1-2 2 1h3c2-1 2-1 0-1-1 0-2 0-1-1 1-2-2-8-4-8h-1l2-2 3 1 1-1 4-1 13-1 10-1-1-3c0-2-1-3-3-3h-2l-2-1-2-1c-1-1 5-5 8-5 1 0 3 0 2-1l2-1c1 1 1 0 0 0h-3c-2 1-2 0-2-2 0-1 0-2-1-1l-3-1c-1 0-1-1 0 0 2 0 3-2 3-9 0-2-1-3-4-4l-4 1c-1 2-3 2-4-1l-3-2c-1 1-2 0-3-2v-2c2 0 6-5 5-6l1-3c2-1 2-2 0-2-1 1-3 0-5-2s-5-3-7-3l-4-2 2-1 2-1 4-1 2-2c0-1 0-2 2-2l2 2v2h9l7 2 17 2 4 1c3 2 3 2 4-1l2-1 4 2 5-1c0-2 1-2 0 0 0 1 1 2 3 2 3-1 4-3 2-4l-3-3c-1-2-1-3 3-3s4-1 2-6v-1c2 2 8 0 9-3 1-2 2-2 4 1 2 2 5 3 6 0l4-2c3 0 3-1 2-2-1-2 0-3 3-1l3 1c1-1 2 0 4 1 1 1 3 2 4 1 2-1 6 1 6 3h-1c-1-2-1-2-2-1-1 3 1 4 3 3l6 1 8 2c6-1 6 0 4 2-2 3 1 7 5 7 9 0 45 6 49 9l3-1h8l3 1c0 3 5 4 10 3h7l6 1h12l4-1c0-1 9 0 12 2h6l7 1h6c1-1 2 0 2 1-1 2 0 2 1 1h4c1 1 0 1-3 2l-4 1h5l9 1h4l6-1h5c1 2 13 1 15-1h3l3-1c0-2 1-2 2-1 3 2 13 3 15 3h5c3 1 4 1 2 2-1 1-1 2 1 2s2 1 2 2h3l4-1c4-3 5-3 5-1 1 2 20 0 20-2h3l6 1h7c2 1 4 0 5-1h1c0 2 1 2 3 1h3c-1 1 0 1 2 1h34l8 1c2 1 3 1 2 2h3l2-2 2 1c4 1 11 1 11-1 0-1-2-2-5-1-6 0-16-1-16-3-1-1 3-2 4-1 1 2 12 0 11-2l-14-1-14-1c0-1 10-2 12-1l15-1 5 1 5 1h22c5-2 8-2 8-1l6 1c9-2 29-3 39-1h8c2 1 8 0 16-1h6l12-1 16-2 8-1 6-3c4-1 6-1 6 1 1 2 3 1 4-1l4-1 8 1 9-1h5c1-2 7-2 20-2a390 390 0 0049 0h4l7 1h30c18-3 32-3 30-1h1l12-2a206 206 0 0021-1h33l-4 1c-5 0-5 3 0 2 2 0 3 1 3 2 0 2 0 2 2 1 1-1 3-3 6-3a118 118 0 0132-2l1 2h-4c-3-1-4 0-3 2 1 1 0 1-1 1l-1-2-1-1-1 1c1 2-20 5-26 4l-11 3-8 2c-1-2 0-4 4-5l2-1c-1-2-4-2-7 0h-3-6c-7 1-13 2-14 1v-1h3l-1-2c-1 1-2 0-1-1h-1l-11 2-14 1h-32a253 253 0 00-29-1h-6l-5 1-4 1c0 1-15 4-16 3l-3 1h-3c0-2-7-3-11-2l-9 2-5 1-1-2-1 1c0 1-1 2-2 1l-6 3c-3 2-3 3-1 3h4l5 1h13l1-1v-1c2-2 18-2 19-1 0 1 0 2-1 1-2 0-11 1-10 2h5c0 2-3 2-6 1-5-3-8 0-4 3l6 1h5c1 0 2 0 2-2h2c1 2 15 3 17 1l3 1 6 1 12-1a173 173 0 0021-1l3 1a193 193 0 00-32 5c0-1-19-2-21-1l-1 1c1 1 16 2 20 1l2 2 4 2 12-1c21 0 40-2 38-4l2-1 3 1 5 1h11l28-3a208 208 0 0133-3l33-5 13-2 11-1c2-1 2-1 0-2-2-2-2-2 2-3l5-2 8-1 9-1h11c15-3 17-3 20-2l2 2h-2l-3-1c-3 1-1 4 2 4h6c3 1 11 0 23-3a227 227 0 0135-5 302 302 0 0143-5l13-2 18-3a305 305 0 0145-5l8-1 10-1h3c0 1 1 1 12-1h7l13-1 14-2 2-2c1-1 2-1 3 1 2 1 3 1 5-1h6l11-2c9 1 18 0 19-1 0-1 0-1 0 0h13c3 1 13 1 24-1a46 46 0 0115 1l4 1 5 1 3 1c0 2-5 6-8 6-4 1-5 3-1 4l7 3 6 2 1 1 6 4 7 4 4 2 2 1c-3 2 0 7 3 7l3 1 3 7 4 8 3 4c3 2 3 4 0 5v6a292 292 0 016 29c1 0 2 2 2 5 1 3 2 5 4 6 4 2 7 7 5 8l-1 1 3 4 4 5c3 2 17 2 24 0l17-1 14-2h7c1 1 5 0 9-1h8l5-1h8c2 2 2 2 3 0 2-3 5-4 5-2-1 2 0 2 2 1s3 0 4 2l3 2 11 11-1 3-1 2 2 1 2 3 2 5 1 2c-1 1 0 1 2 1 2-2 6 1 3 3-2 2 12 9 15 7 2-1 3 0 3 1v3l-2 1c-1-1-1 1-1 2 0 2-1 3-3 2-1 0-1 1 2 2l5 1c2-1 5 0 7 1 4 2 4 3 3 5-2 3 0 3 7 1 8-2 7 0-1 2-3 2-5 2-6 1s-5 1-4 3l2-1c1-1 2 0 1 1-1 3 0 7 3 7l3 2 1 2 5 1c3 1 3 2 2 2-3-1-3 1-1 2l2 2 1 1c2 1 7-3 6-4s2-3 5-2c3 0 3 0 0 2l-5 2c-1 0-1 1 1 2 4 1 3 2 0 3-2 0-4 1-3 2h2c3-2 6 0 6 3 0 2 1 3 4 1l1 1c0 1 0 2 2 1l2-1h1c1 2 1 2-3 3-3 0-5 1-4 2l1 1 2 1 1 1c1-1 2 0 3 1 0 2 1 3 4 2 1 0 3 8 2 10l-1 3-1 1c-2 1-4 3-2 4h3c3 0 3 0 1 1l-2 1-3 3c-1 2-3 2-3 2-1-1-3-1-5 1-7 4-6 4 1 3 5-2 7-2 7-1l-2 2-2 1v4c0 2 1 2 4 2h4l1 2c1-1 2-1 1-2l5 2 7 2 4 1h2v-1c1 1 1 0 2-1 0-1 0-1 0 0v3l-4 2c-3 0-4 0-3 2l2 3 2 1c2-1 3 6 2 9l-6 3-3 1-1 2 5-1 7-3 2-1c2 0 0 5-2 6" class="st0"/>
      <path id="path18" d="M4660 1510l1-1h2l-1 2-2-1" class="st0"/>
      <path id="path20" d="M4661 1516c2 1 2 2-1 1h-4l-1-1c0-1 3-2 6 0" class="st0"/>
      <path id="path22" d="M4655 1498l-2-1 3 1h-1" class="st0"/>
      <path id="path24" d="M4651 1505h-4l-1-2c-1 1-1 0-1-1v-3h1c1 1 2 0 3-1 0-1 1-2 2-1 0 0 0 2-2 3l-2 3h4c5-1 5 1 0 2" class="st0"/>
      <path id="path26" d="M4644 1470l1-2 1 1v2c-1 1-1 0-2-1" class="st0"/>
      <path id="path28" d="M4653 1510l2-1 1 1-1 1-2-1" class="st0"/>
      <path id="path30" d="M4640 1473l1-1c2 0 2 0 1 1h-2" class="st0"/>
      <path id="path32" d="M4640 1511h2l-1 1c-2 0-2 0-1-1" class="st0"/>
      <path id="path34" d="M4615 1429c-1-1 0-2 1-2 2 0 3 3 2 3l-3-1" class="st0"/>
      <path id="path36" d="M4614 1424h-2l2-2h3l-3 2" class="st0"/>
      <path id="path38" d="M4616 1448c-1-2 0-2 3-1 2 0 2 1 0 1h-3" class="st0"/>
      <path id="path40" d="M4583 1399c1-1 1 0 1 1v1l-1-2" class="st0"/>
      <path id="path42" d="M4585 1412l-1-1 1-2 1 1-1 2" class="st0"/>
      <path id="path44" d="M4582 1409c-3 2-3 2-3 0l-2-3c-1-1-1-1 2-1 4 1 5 2 3 4" class="st0"/>
      <path id="path46" d="M4560 1379c0-3 1-3 2-1l-1 3-1-2" class="st0"/>
      <path id="path48" d="M4552 1372c-2 0-2-1 0-1l4 1c0 1 0 2-1 1l-3-1" class="st0"/>
      <path id="path50" d="M4430 1239h-1l2-1-1 1" class="st0"/>
      <path id="path52" d="M4414 1227l-1 1c2 2-6 2-8 1-2-2-2-2-2 0v2c1 1-32 8-33 7-1 0 2-2 4-1l3-2c3-3 29-9 30-8h4l5-1-2 1" class="st0"/>
      <path id="path54" d="M4409 1217l2-2 2 1-1 2c-1 1-2 0-3-1" class="st0"/>
      <path id="path56" d="M4426 1308h6c6 0 7 1 1 1-3 1-6 0-7-1" class="st0"/>
      <path id="path58" d="M4399 1189l3-1-2 1h-1" class="st0"/>
      <path id="path60" d="M4384 1250l-3-2c-1 0-1-1 1-1h7l9-3h10c2 2 2 2 2 0-1-1 0-2 3-2 3-1 3-1 1 2s-6 5-8 4h-2-3c-2-1-3 0-3 1s-1 1-1-1c-2-1-2-1-4 2l-2 1h-3c-3 1-4 1-4-1" class="st0"/>
      <path id="path62" d="M4407 1222h-3l2-1h3l-2 1" class="st0"/>
      <path id="path64" d="M4207 1236c-1-1-1-2-2-1l1 2c1 1 1 1 1-1zm-26 10l-1 1h2c2-1 1-2-1-1zm-14-2v3h1l1-2-2-1zm-20 5l-1 1h2l1-1h-2zm0-11l-1 2 1 1 1-2-1-1zm-8 0c-3 0-3 1-1 1l3 1h2c1-2-1-3-4-2zm-63 11l-6-1c-2-2-2-2-1 0s1 2-2 1h-7l-6 1h-5-12c-2-1-3-1-5 1-2 3-3 6 0 6v-2c-1-2-1-2 4-1h5l1 1c2 1 2 1 3-1l5-1c5 1 23-1 26-3l3-1h-3zm-37-1l-1 1 2 1 1-1-2-1zm8 13c3 0 4-1 1-2-1-1-2 0-3 1l2 1zm-22-10c-1 1-1 1 1 1l1-1h-2zm-3 18c-2 2-2 2 2 2 1-1 2-1 1-2h-3zm385-51l-4 2c-2 3-5 5-6 3h-2c-1 1-2 0-2-1l-2-1v1c2 3-3 4-6 2-2-2-6 0-5 2 0 2-2 3-3 1h-8l-7 2c1 2-3 2-6 2-1-1-7 0-13 1l-15 2h-4-7-4l-12 2-28 3-14 2h-10l-24 5-5 1-6-1h-10l-6-1c-2-2-2-1-3 1l-4 2c-1 1-1 0 0 0 1-1 1-2-2-3h-1c2 2-7 5-12 4h-4-4v2l-3-1h-10l-2-2v1c1 1-1 2-4 2l-6 1c0-3-1-3-2-1l-4 1-10 1-11 1c-3 0-4 1-4 2l-2-1-4-1-6 2c-9 0-22 2-21 3l2 1h1l-6 1-12 1-15 1c-11 1-15 2-19 5l-3 3h5c6-1 7 1 2 1h-11l-7 1c-2-1-2-1 0-1 4 0 8-4 6-5s-12 0-15 1c-4 2-5 1-3-1 3-3 5-3 13-4 4 0 5-1 5-2l-2-2-2 1-3 1-3-1-4 1h-7c0 2-1 2-1 0-1-2-2-2-7 0l-8 1 3-1 3-2c-1-2-8-1-10 1h-2l-9 1-8 1-1-1-1 2-5 2c-6 0-8-2-2-2 5-1 5-3 1-3-9 0-10 1-10 2s1 2 2 1l2 1h-18l-4-2c-3-1-3-1 1-2l4 1h1v-1c-1-1 0-1 3-1l12-1 14-1h14l11-1 16-2h6l2-1c-1 1 0 1 2 1 3-1 3-2 1-3l-2-1-3 1-5-1-12 2a352 352 0 01-27 1l12-2h3c-1 2 0 2 3 0 2-2 3-2 4-1h3c1-1 18-2 19-1l4-1h9l3 1 22-3a280 280 0 0028-4h10c4 1 6 1 4-1h4c1 0 2 1 1 2-3 2 1 4 4 2h5c1-2 2-2 3-1s2 1 1-1c0-1 0-2 4-2l6 1h1l1-2 1 1 1 2h1c0-2 0-3 2-2l2-1c-1-1 1-2 4-2l4 1-1 2-1 1 2 1 1-1 1-3c2-2 12-3 14-2l5 1 24-3h5c1 2 1 2 3 0l8-3c5-1 6 0 5 1 0 2 1 2 4 0 2-2 3-2 3-1 1 1 14-2 16-4h10c8-2 22-3 22-2h1l2-2h7c7-1 9-1 7 1h6l10-4h9c0 3 4 4 12 3l9-1 10-1a302 302 0 0141-5l3-1c3 0 4 0 4 2 1 2 1 2 1 0 2-3 3-4 3-1 0 2 1 3 2 2l1-2 1-2 3-1h2l-2 2-1 1c1 1 3 0 5-1h3l2 2h4c1 2 2 2 4 0 3-2 5-2 5-1l-1 1" class="st0"/>
      <path id="path66" d="M4398 1201c-4-2-4-3-1-1l5 2c2 0 2 0 0 0-1 1-3 0-4-1" class="st0"/>
      <path id="path68" d="M4401 1217l-2-1c-1-1 1-2 2-2h1v2l-1 1" class="st0"/>
      <path id="path70" d="M4404 1252c0 1-1 2-3 2-1 0-2 0-2-2s1-3 2-3c3 0 4 2 3 3" class="st0"/>
      <path id="path72" d="M4385 1203c-1-1 0-2 2-2v1l-2 1" class="st0"/>
      <path id="path74" d="M4380 1201h-3c1 1 0 2-1 2l-2-1v-3l1-1c2 0 2 0 0-1l-1-1c1 0 3 0 4 2 3 2 6 2 5 0l1-2c2 0 2 3 1 4l-5 1" class="st0"/>
      <path id="path76" d="M4373 1195c-1 0-2 0-1-1h3l-2 1" class="st0"/>
      <path id="path78" d="M4389 1266h-2l4-1-2 1" class="st0"/>
      <path id="path80" d="M4271 1205v2c1 1 2 1 3-1 2-2 0-3-3-1zm-34 7l-1-2-1 2v1c-1 1-1 0-2-1l-1 2 1 4c2 2 5 0 4-3v-3zm136-13l-2 1v4l-3-1c0-2-1-2-1 0h-2c-1-1-2-2-3-1h-2l-34 5a1281 1281 0 01-66 11l-6 1h-6l-4 1h-6c1 1 0 1-1 1l-10 2c-11 2-14 1-9-2 2-2 4-2 7-2 3 1 3 0 3-2 0-1 0-2-1-1s-3-1-2-3l1-2c1-2 1-1 2 1 0 2 1 2 2 0 0-2 2-2 6-3l6-2h1c2 1 9 1 8-1l5-1 15-2c7-2 10-2 10-1h1c1-2 2-2 6-2l7-1c1-2 14-3 15-1h1l1-1v-1h13c2 1 10-1 10-3 0-1 3-1 4 1 2 2 8 1 7-1h2c2 3 4 2 3 0-2-1-1-2 2-1l3 3h1c1-2 4-3 5-1h3c2 0 3 0 4 2l2 2 2 1" class="st0"/>
      <path id="path82" d="M4376 1252l-2-1v-1h2v2" class="st0"/>
      <path id="path84" d="M4328 1243a793 793 0 000 0" class="st0"/>
      <path id="path86" d="M4369 1242l-1 1h-1c-1-1 0-1 1-2l1 1" class="st0"/>
      <path id="path88" d="M4362 1244l-4-1h5c3 0 3 0-1 1" class="st0"/>
      <path id="path90" d="M4355 1243c1 1 0 1-1 1h-1l2-1" class="st0"/>
      <path id="path92" d="M4348 1245l-1 2-2-1 1-1h2" class="st0"/>
      <path id="path94" d="M4340 1248h-2l1-2c2 0 3 1 1 2" class="st0"/>
      <path id="path96" d="M4317 1244h-3c-1-1-1-2 1-1 3 0 4 0 2 1" class="st0"/>
      <path id="path98" d="M4309 1245h-3c-2-1-1-1 1-2 4-1 5 0 2 2" class="st0"/>
      <path id="path100" d="M4283 1180c-1 0-2 0-1-1h3l-2 1" class="st0"/>
      <path id="path102" d="M4291 1246c6 0 7 0 4 1-9 3-9 3-9 1l5-2" class="st0"/>
      <path id="path104" d="M4219 1213c-1-2 1-3 4-2 1 0 2 1 1 2-2 3-4 3-5 0" class="st0"/>
      <path id="path106" d="M4212 1219l-2 1-10 3c-4 0-8 0-7-1v-2c-1-2 0-2 3-3 7-2 9-3 9-4 1-2 2-2 4 0v1c-1-1-3 0-4 2l-2 2c0-2-1-1-2 0-1 2 0 3 4 3l2-2c-1-2 0-2 1-2l4-1c4 0 5 1 3 3h-3" class="st0"/>
      <path id="path108" d="M4212 1214c-1-2 0-3 1-3 2-1 2 0 1 3-1 2-1 2-2 0" class="st0"/>
      <path id="path110" d="M4207 1249c1 1 0 1-1 1h-1l2-1" class="st0"/>
      <path id="path112" d="M4188 1220c-3 2-13 4-16 3l7-2 11-2-2 1" class="st0"/>
      <path id="path114" d="M4162 1228l-2-1 2-1 2 1-2 1" class="st0"/>
      <path id="path116" d="M4108 1257l-1 1c-2 0-2 0-1-1h2" class="st0"/>
      <path id="path118" d="M4099 1259h-2l4-1c2 0 1 1-2 1" class="st0"/>
      <path id="path120" d="M4071 1276h-3l5-1-2 1" class="st0"/>
      <path id="path122" d="M4068 1266l2-1-2 1c-1 0-1 0 0 0" class="st0"/>
      <path id="path124" d="M4062 1266c1 1 0 1-1 1h-1l1-2 1 1" class="st0"/>
      <path id="path126" d="M4047 1266h4v1h-4c-2-1-2-1 0-1" class="st0"/>
      <path id="path128" d="M4042 1274h5c2 1 2 1 0 1h-4c-2 0-2 0-1-1" class="st0"/>
      <path id="path130" d="M4046 1279c1 1 0 2-2 2-3 1-3 0-1-1l3-1" class="st0"/>
      <path id="path132" d="M4035 1277l2-2 3 1-2 1h-3" class="st0"/>
      <path id="path134" d="M4029 1277c2-2 3-2 3 1 1 1 2 2 3 1l3 1c1 1-1 1-4 1-5 0-7-1-5-4" class="st0"/>
      <path id="path136" d="M4013 1273l-4 1h-4l4-2 4 1" class="st0"/>
      <path id="path138" d="M3987 1267c-7 1-9 1-7-1l5-1h17c2 1 2 1-2 1l-13 1" class="st0"/>
      <path id="path140" d="M4004 1271h-3 3" class="st0"/>
      <path id="path142" d="M3976 1268l-4 2c-4 0-4 0-2-1 3-2 5-3 6-1" class="st0"/>
      <path id="path144" d="M3963 1289l-1 1-2-1 2-1 1 1" class="st0"/>
      <path id="path146" d="M3945 1280c-2-1-2-2-1-2v-3l2 2c-1 1 0 2 1 2 1-1 2-1 1-2l5-2 5-1-2 1-5 3-6 2" class="st0"/>
      <path id="path148" d="M3953 1268l3-1-2 1h-1" class="st0"/>
      <path id="path150" d="M3957 1291l-3-1 1-2c2 0 4 3 2 3" class="st0"/>
      <path id="path152" d="M3952 1284h2l-1 1c-2 0-2 0-1-1" class="st0"/>
      <path id="path154" d="M3948 1289c-4 1-3 0 1-2 2-1 3-1 2 1l-3 1" class="st0"/>
      <path id="path156" d="M3943 1287l-5 3c-6 3-9 4-10 2 0-2 5-5 7-5l1-1 4-2h4l1 1c2-2 2-1 0 1-1 1-1 2-2 1" class="st0"/>
      <path id="path158" d="M3921 1264c8-3 8-2 0 2-9 3-10 3-12 0-2-2-2-2 0-2s3 0 3-2v-2c1 0 2 0 1 1l2 1c4-2 5 0 2 2h4" class="st0"/>
      <path id="path160" d="M3919 1275h-4l2-1 2 1" class="st0"/>
      <path id="path162" d="M3919 1294l1-1 2 1-2 1-1-1" class="st0"/>
      <path id="path164" d="M3899 1263c-6 0-4-2 3-2 3 0 5 0 4 1l-7 1" class="st0"/>
      <path id="path166" d="M3903 1290l1-1 1 1-1 1-1-1" class="st0"/>
      <path id="path168" d="M3891 1292l3-2h2v-2c2 0 4 3 3 4l-6 1c-3 0-4 0-2-1" class="st0"/>
      <path id="path170" d="M3858 1289l5-1h20l-1 2-2-1-5 1h-3c1-1 0-1-1-1-5 3-23 5-29 3l-8-1h-5-1c-2 2-5 3-5 2l2-2 3-1 6-1h16l4-1c-3 2-1 3 4 1" class="st0"/>
      <path id="path172" d="M3870 1300c2 0 2 1-2 1h-6c-2-1 4-2 8-1" class="st0"/>
      <path id="path174" d="M3858 1301c1 1 0 2-2 2s-4 0-3-1l2-1h3" class="st0"/>
      <path id="path176" d="M3833 1234v-5c1-1 2 0 2 4-1 3-1 3-2 1" class="st0"/>
      <path id="path178" d="M3846 1287h3l-2 1c-1 0-2 0-1-1" class="st0"/>
      <path id="path180" d="M3839 1303l2-2-1-1-2 2 1 1zm-8-3l-4-1h23l-2 2 1 1c2 1 1 1-2 1l-8 1h-6c-1-1 0-1 1-1 5 0 2-3-3-3" class="st0"/>
      <path id="path182" d="M3824 1228v1l-2 1c-3 1-3 1-4-3-1-5 0-6 2-3 1 2 3 3 4 2h2l-2 2" class="st0"/>
      <path id="path184" d="M3816 1301l4-1-2 1h-2" class="st0"/>
      <path id="path186" d="M3807 1299c-1-1 0-1 2-1h3l-2 2-3-1" class="st0"/>
      <path id="path188" d="M3922 1727v2l-2-2v-2l2 2" class="st0"/>
      <path id="path190" d="M3884 1735l-2 1c-2 0-3 0-2-1h4" class="st0"/>
      <path id="path192" d="M3752 1272h-3l2-1h2l-1 1" class="st0"/>
      <path id="path194" d="M3871 1736l-2 1h-1l3-1" class="st0"/>
      <path id="path196" d="M3741 1270l-3-1c-1-2-1-2 1-1 3 1 3 2 2 2" class="st0"/>
      <path id="path198" d="M3736 1272c-2-2-16-2-22-1h-5l-6-1-7-2 1-1h10l3 1 12-1v-2c-2-3-1-3 2-2 2 0 2 1 1 1-3 0-1 3 2 3l3 1h2l3 2 1 2" class="st0"/>
      <path id="path200" d="M3730 1289l3-1-1 1h-2" class="st0"/>
      <path id="path202" d="M3707 1263l-5-1 1-1 13 1-2 1h-7" class="st0"/>
      <path id="path204" d="M3698 1263l-3-1 3-1 3 1-3 1" class="st0"/>
      <path id="path206" d="M3826 1745l-2 1c-1 0-2 0-1-1h3" class="st0"/>
      <path id="path208" d="M3692 1271l-4-1c-2 0-2-1 1-1h4l-1 2" class="st0"/>
      <path id="path210" d="M3819 1746l-2 1h-2l4-1" class="st0"/>
      <path id="path212" d="M3683 1270c-2-1-1-3 1-2 2 0 2 0 1 1l-2 1" class="st0"/>
      <path id="path214" d="M3678 1270l1-2 1 1v2l-2-1" class="st0"/>
      <path id="path216" d="M3676 1270h-3c-1-1 0-1 1-2l2 1v1" class="st0"/>
      <path id="path218" d="M3776 1748l-2 1h-1l3-1" class="st0"/>
      <path id="path220" d="M3768 1756l-2 1-1-1h3" class="st0"/>
      <path id="path222" d="M3751 1758l-2 1h-1l3-1" class="st0"/>
      <path id="path224" d="M3739 1761l-2 1c-1 0-2 0-1-1h3" class="st0"/>
      <path id="path226" d="M3720 1762l2 1-1 1-2-1 1-1" class="st0"/>
      <path id="path228" d="M3699 1777l2 1h-2-1l1-1" class="st0"/>
      <path id="path230" d="M3498 1250l-1-1h3c2 0 2 1 1 1h-3" class="st0"/>
      <path id="path232" d="M3468 1283h3l-1 1c-2 0-3 0-2-1" class="st0"/>
      <path id="path234" d="M3448 1286c-1 0-1-1 1-2l3-1-1 2-3 1" class="st0"/>
      <path id="path236" d="M3432 1287h-12l-16 1-11 1c-2 1-3 0-4-2 0-3 0-3 5-4h7l6 1c3 0 3 1 3 2l6-1 13-1 8 1h3c1 1 0 1-1 2h-7" class="st0"/>
      <path id="path238" d="M3412 1272h-3-4c-8 1-24-1-24-3s-1-2-1-1h-23a452 452 0 01-22-3l11-1 12 1h7l4 1 14 1 22 1c10 2 13 4 7 4" class="st0"/>
      <path id="path240" d="M3380 1291h-3l1-1c4-1 4 0 2 1" class="st0"/>
      <path id="path242" d="M3500 1775c5-1 6 0 2 2h-4c-1-1-1-2 2-2" class="st0"/>
      <path id="path244" d="M3344 1218c-2 0-2 0-1-1h2l-1 1" class="st0"/>
      <path id="path246" d="M3337 1216h-3c-3 0-6-2-3-3l2 1 2 1c2-1 6 2 4 3-1 1-1 0-2-2" class="st0"/>
      <path id="path248" d="M3357 1289h-4c-2-1-1-1 2-2 4 0 4 0 2 2" class="st0"/>
      <path id="path250" d="M3490 1777l1 1-1 1-1-1 1-1" class="st0"/>
      <path id="path252" d="M3323 1214c-8 0-14-1-15-3 0-1 0-2 1-1l2 1h4c0 1 0 2 2 2 3 0 5 0 3-1l-1-1 4 1c4 2 4 2 0 2" class="st0"/>
      <path id="path254" d="M3340 1288l-6-1c-3-1-3-1 2-1 6 0 9 1 4 2" class="st0"/>
      <path id="path256" d="M3471 1784l-2 1c-1 0-2 0-1-1h3" class="st0"/>
      <path id="path258" d="M3324 1288v-1l3-1c1-1 1-2 2-1l-2 2c-1 1-2 2-3 1" class="st0"/>
      <path id="path260" d="M3301 1211c-1-1-1-1 1-1 3-1 4-1 2 1h-3" class="st0"/>
      <path id="path262" d="M3320 1288l-3-2 3 1c3 1 3 1 0 1" class="st0"/>
      <path id="path264" d="M3453 1786h3l-3 1h-5c-2-1-2-1 0-1h5" class="st0"/>
      <path id="path266" d="M3290 1207l-4-1c-1 1-14-1-14-2-1-2 2-2 3 0l3 1c3-2 13 0 14 1 0 2 0 2-2 1" class="st0"/>
      <path id="path268" d="M3435 1785l2 1-1 1-2-1 1-1" class="st0"/>
      <path id="path270" d="M3265 1201l3 2v1l-2-1c-1-1-2-1-1-2" class="st0"/>
      <path id="path272" d="M3427 1787l-1 1-2-1v-1l3 1" class="st0"/>
      <path id="path274" d="M3254 1201l3-1-1 1h-2" class="st0"/>
      <path id="path276" d="M3416 1796c1 1 1 1-1 1h-2l3-1" class="st0"/>
      <path id="path278" d="M3240 1215l-2-1 2-1 1 1-1 1" class="st0"/>
      <path id="path280" d="M3229 1214c-2 0-2-1-1-1h3l1 1h-3" class="st0"/>
      <path id="path282" d="M3380 1785l2 2-3 1-4-1c-1-1 0-2 1-2h4" class="st0"/>
      <path id="path284" d="M3363 1785l2 2-2 1-2-1 2-2" class="st0"/>
      <path id="path286" d="M3185 1269c-2 0-2 0-1-1h2l-1 1" class="st0"/>
      <path id="path288" d="M3177 1267l-2-1 1-1 2 1-1 1" class="st0"/>
      <path id="path290" d="M3298 1797c3 0 3 1 1 1l-4-1h3" class="st0"/>
      <path id="path292" d="M3281 1797h-4c-3-1-3-1 1-1s4 0 3 1" class="st0"/>
      <path id="path294" d="M3230 1782l3 1h4c4-1 4-1 3 2l-4 1h-7c-2 0-1-4 1-4" class="st0"/>
      <path id="path296" d="M3211 1783h5c4-1 9 0 10 2l-5 1-9-1h-8l-6-1c-4 1-7-1-3-2 3-1 16 0 16 1" class="st0"/>
      <path id="path298" d="M3084 1274l-1-1 1-1 2 1-2 1" class="st0"/>
      <path id="path300" d="M3037 1199c-5-1-7-2-4-2 2 0 3 0 2-1 0-2 3-1 5 2 2 2 2 2-3 1" class="st0"/>
      <path id="path302" d="M3183 1781h5c3-1 5 1 3 3h-2-3c-4 1-7 0-6-3h3" class="st0"/>
      <path id="path304" d="M3026 1194l-1-1c-1-1 0-1 1-1l1 1-1 1" class="st0"/>
      <path id="path306" d="M3022 1182h-1l3-1-2 1" class="st0"/>
      <path id="path308" d="M3016 1196l1-2 2 1v1h-3" class="st0"/>
      <path id="path310" d="M3015 1191h-2c-1 1-7-3-6-4l5 2 4 2h-1" class="st0"/>
      <path id="path312" d="M3177 1781v2l-2 1v-2l2-1" class="st0"/>
      <path id="path314" d="M3012 1181l-2-1 1-2 2 1-1 2" class="st0"/>
      <path id="path316" d="M3038 1295c-2 0-2 0-1-2l3-2v1l-1 1c1 1 0 2-1 2" class="st0"/>
      <path id="path318" d="M3170 1780c2 0 2 1 1 2-3 1-7 1-7-1l6-1" class="st0"/>
      <path id="path320" d="M3011 1226c2 0 3 1 1 1h-2c-1-1 0-1 1-1" class="st0"/>
      <path id="path322" d="M3158 1779c1 0 2 0 3 2 1 1 1 2-3 1-4 0-4-2 0-3" class="st0"/>
      <path id="path324" d="M2997 1190l1 2c0 1 0 2-1 1v-3" class="st0"/>
      <path id="path326" d="M2989 1186c-1 1-3 0-3-1-2-3-1-3 2-1l1 2" class="st0"/>
      <path id="path328" d="M3114 1779l1-2v-1-2h1l2 2 2 1h6l5 1h3l1 1 3 1 3-1c0-2 6-1 8 0l2 1h1c1 1-1 1-4 1l-18-1h-16c-2 0-2 0 0-1" class="st0"/>
      <path id="path330" d="M2987 1191l1-1h2v2l-3-1" class="st0"/>
      <path id="path332" d="M2990 1215v-2l2-1v1l-2 2" class="st0"/>
      <path id="path334" d="M2979 1184v-1c3-2 4-2 3 0l-3 1" class="st0"/>
      <path id="path336" d="M2981 1187l-1 2-2-1v-1h3" class="st0"/>
      <path id="path338" d="M3021 1350l-3-1c-3 0-3 0-1-1l4 1v1" class="st0"/>
      <path id="path340" d="M3017 1330l-1 1h-3l1-2 3 1" class="st0"/>
      <path id="path342" d="M2972 1185c-1-1 0-1 1-1s2 0 1-2v-2c1 0 2 3 0 5h-2" class="st0"/>
      <path id="path344" d="M2968 1184h-3l2-1h2l-1 1" class="st0"/>
      <path id="path346" d="M3010 1350c-1 0-2 0-1-1h3l-2 1" class="st0"/>
      <path id="path348" d="M2956 1180v-3l2 2 2 2c3 0 5 2 3 3-2 0-5-1-7-4" class="st0"/>
      <path id="path350" d="M3002 1349c-6 0-9-1-8-3l12 2-4 1" class="st0"/>
      <path id="path352" d="M2997 1327l-2-1 3 1h-1" class="st0"/>
      <path id="path354" d="M2968 1231l-2-1h3c1 1 1 1-1 1" class="st0"/>
      <path id="path356" d="M2999 1342c-1 1-2 0-4-1l-1-1 3 1 2 1" class="st0"/>
      <path id="path358" d="M2947 1181l1-1c1-1 1-1-1-1h-3c2 2 0 2-4 1l-9-1-6-2c-1-2-3-3-6-4l-1-1 5 1 4 1h2c1 1 1 1-1 1l-1 1h4c2-1 4 0 6 1s5 1 3-1h4l5 1c4 0 6 4 2 4h-4" class="st0"/>
      <path id="path360" d="M2986 1326c0-2 0-2 2-1l3 2h-2c-1 1-2 0-3-1" class="st0"/>
      <path id="path362" d="M2986 1340c-2 0-2-1 0-1l3 1v1l-3-1" class="st0"/>
      <path id="path364" d="M2955 1228l-2-1h2c2 1 2 1 0 1" class="st0"/>
      <path id="path366" d="M3107 1787l2 1h-2-1l1-1" class="st0"/>
      <path id="path368" d="M3099 1776h5l2 1-2 1c-4 1-8 1-8-1s0-2 3-1" class="st0"/>
      <path id="path370" d="M2981 1338v1l-2 2-1-2 3-1" class="st0"/>
      <path id="path372" d="M2976 1325h-3l2-1h3l-2 1" class="st0"/>
      <path id="path374" d="M2951 1226l-2 1-1-1 1-1 2 1" class="st0"/>
      <path id="path376" d="M2976 1346v-2c1-1 1 0 2 2l-1 2-1-2" class="st0"/>
      <path id="path378" d="M2974 1339l-1 1-1-2c1-1 2-1 2 1" class="st0"/>
      <path id="path380" d="M2915 1219l7 1c4 1 7 2 9 1l2 1h5c2 0 2 1 0 2-1 1-15-2-19-4h-3c-1 1-6 0-11-1-7-1-9-2-8-3s2 0 4 1l4 1h3l5 1h2" class="st0"/>
      <path id="path382" d="M2920 1193l-2-1 3 1h-1" class="st0"/>
      <path id="path384" d="M2914 1172l-2-2 3 1c2 1 2 1-1 1" class="st0"/>
      <path id="path386" d="M3078 1784l2 2-6-2h4" class="st0"/>
      <path id="path388" d="M2915 1191h-2l-1-1h1c1-1 1 0 2 1" class="st0"/>
      <path id="path390" d="M2940 1313c2 1 2 2 0 3-1 0-2 0-2-2l2-1" class="st0"/>
      <path id="path392" d="M3069 1785h-2c-3-1-6-2-5-3 2 0 7 1 7 3" class="st0"/>
      <path id="path394" d="M2895 1171v-2l2 2h2c2-1 2-1 1 1s-2 1-5-1" class="st0"/>
      <path id="path396" d="M2936 1315c-2 2-2 2-2 0s1-3 2-2v2" class="st0"/>
      <path id="path398" d="M2930 1312c3-1 3-1 1 2h-5c-4-2-4-2-1-2h5" class="st0"/>
      <path id="path400" d="M3055 1781l3 1c1 1 0 1-2 2l-3-1 2-2" class="st0"/>
      <path id="path402" d="M2880 1170l-6-2h7l3 1-4 1" class="st0"/>
      <path id="path404" d="M2911 1310l5 2c2-1 4 0 5 1s0 1-4 1l-9-2-4-2 3-1 4 1" class="st0"/>
      <path id="path406" d="M2893 1215l-4-1-4-2h4c4 1 6 2 4 3" class="st0"/>
      <path id="path408" d="M3046 1781c2 0 2 1 0 1h-3c-2-2 0-2 3-1" class="st0"/>
      <path id="path410" d="M2864 1167c-2-2-2-3-1-3l1 1c1 1 2 2 3 1l3 1c1 1 0 1-1 2l-5-2" class="st0"/>
      <path id="path412" d="M2877 1214c-3-1-2-2 2-1 2 0 3 0 2 1h-4" class="st0"/>
      <path id="path414" d="M2888 1309c-2 1-7-1-7-2 1-1 5-1 15 1 7 1 8 2 4 3l-3-1h-8l-1-1" class="st0"/>
      <path id="path416" d="M3027 1779h2l-1 1h-2c-1-1 1-1 1-1" class="st0"/>
      <path id="path418" d="M2868 1212h-2c-2-1-3-1-2-2 0-1 3 0 4 2" class="st0"/>
      <path id="path420" d="M2856 1211c-2-1-3-1-1-2 1-1 2 0 2 1h2l2 1-1 1-4-1" class="st0"/>
      <path id="path422" d="M3014 1778c2 0 2 1 1 1l-4-1h3" class="st0"/>
      <path id="path424" d="M2888 1327l-2-1 2-2 1 1-1 2" class="st0"/>
      <path id="path426" d="M2881 1334l-8-3c1-1 14 1 15 3h-7" class="st0"/>
      <path id="path428" d="M2997 1775l6 1 4 1c2 0 2 1 1 1l-8-1c-5-1-6-1-3-2" class="st0"/>
      <path id="path430" d="M2876 1307l-3-1c-1-2 0-2 4-1s4 3-1 2" class="st0"/>
      <path id="path432" d="M2848 1212l-2-1h1c3 0 3 1 1 1" class="st0"/>
      <path id="path434" d="M2843 1208c1 2-2 2-3-1l-3-1h-6l-3-2 3-2h1c0 2 2 3 5 2l2 1 2 1 3 1c2 1 2 1 0 1h-1" class="st0"/>
      <path id="path436" d="M2867 1306c-4-1-5-1-3-2 4-1 7-1 7 2h-4" class="st0"/>
      <path id="path438" d="M2832 1179v-2l2 1v2l-2-1" class="st0"/>
      <path id="path440" d="M2991 1775c3 1 3 1-1 1l-5-1c-2 0-2 0 0-1l6 1" class="st0"/>
      <path id="path442" d="M2867 1332l-5-2 9 2h-4" class="st0"/>
      <path id="path444" d="M2859 1302c1 1 0 2-1 2l-3-1 2-1h2" class="st0"/>
      <path id="path446" d="M2975 1772h3c-1 1 0 2 2 2 2 1 2 1 0 1l-6-1c-3 0-3-2 1-2" class="st0"/>
      <path id="path448" d="M2829 1216l-2 1-1-1 1-1 2 1" class="st0"/>
      <path id="path450" d="M2820 1204c-4 1-8 1-9-1v-3l2 2c0 2 0 2 1 0 1-1 2-1 2 1h6l-2 1" class="st0"/>
      <path id="path452" d="M2846 1301l-6 1c-4 0-4 0-2-2 2-1 3-2 4-1l4 1c2 1 2 1 0 1" class="st0"/>
      <path id="path454" d="M2846 1315h-5c-1-1 0-1 2-1 5 0 7 1 3 1" class="st0"/>
      <path id="path456" d="M2821 1224l-2-1 2-1 1 1-1 1" class="st0"/>
      <path id="path458" d="M2959 1771l4 1h5c2 1 3 2 1 2h-3l-5-1-5-1c0-2 2-2 3-1" class="st0"/>
      <path id="path460" d="M2815 1213c1 1 0 1-1 1h-1l2-1" class="st0"/>
      <path id="path462" d="M2835 1298l1 1-1 1c-1 1-1 0-2-1l2-1" class="st0"/>
      <path id="path464" d="M2804 1203l1-3c2 0 4 3 3 4-1 2-3 1-4-1" class="st0"/>
      <path id="path466" d="M2827 1299c0 2 1 3 4 3l3 1h-7l-8-1-10-2-1-1c-1 1-9 0-10-2l1-1 2-1 2 1 1 2h3c1-2 2-2 2-1 1 1 12 4 15 3l1-1 1-2 1 2" class="st0"/>
      <path id="path468" d="M2805 1212l3 1 1 1c-2 1-4-1-4-2" class="st0"/>
      <path id="path470" d="M2833 1314l-1-1 1-1 2 1-2 1" class="st0"/>
      <path id="path472" d="M2795 1187h3l2 2c-2 1-6-1-5-2" class="st0"/>
      <path id="path474" d="M2800 1201c1 1 1 1-1 1s-3-3-1-3l3 1-1 1" class="st0"/>
      <path id="path476" d="M2801 1213v-1l1-1v1c1 1 0 1-1 1" class="st0"/>
      <path id="path478" d="M2949 1770l4 1 1 1-4-1c-3-1-3-1-1-1" class="st0"/>
      <path id="path480" d="M2794 1201l-2-1 2-1 1 1-1 1" class="st0"/>
      <path id="path482" d="M2948 1767l-1 1-1 2-2 1-2-1c-1-1 5-4 6-3" class="st0"/>
      <path id="path484" d="M2936 1766c4 3 5 3 3 3h-6c-4-1-5-1-3-3s3-2 6 0" class="st0"/>
      <path id="path486" d="M2791 1297c-4-1-5-3-1-3l4 1c0 1-1 2-3 2" class="st0"/>
      <path id="path488" d="M2912 1764c2 1 2 1 0 1h-3c-1-1 0-2 3-1" class="st0"/>
      <path id="path490" d="M2778 1294l-9-2-8-2h-6l-8-2 6 1h7l-2-1-2-2 4 1 5 1 5 2 7 2h2l-1 2" class="st0"/>
      <path id="path492" d="M2880 1757l5 1-1 3h6c1-1 0-1-1-2-2-1-2-1 0-1h4l6 3 6 3h-5l-13-2-12-1c-3-1-3-1-2-3 2-1 3-2 7-1" class="st0"/>
      <path id="path494" d="M2745 1289l-2-1 1-1c1-1 1 0 2 1l-1 1" class="st0"/>
      <path id="path496" d="M2738 1289l-2-2 1-1 2 2-1 1" class="st0"/>
      <path id="path498" d="M2729 1281l1-1 2 1v1l-3-1" class="st0"/>
      <path id="path500" d="M2732 1289c-2 1-3 0-3-2-1-2 0-2 2-1l2 2-1 1" class="st0"/>
      <path id="path502" d="M2724 1287l-2-1 2-1h2l1 2v1l-3-1" class="st0"/>
      <path id="path504" d="M2716 1287l-3-1c-4 1-7-1-3-2s12 2 9 3h-3" class="st0"/>
      <path id="path506" d="M2702 1286l-7-1-6-1-3-1c-5 1-8 1-9-2 0-1 0-2 4-1 3 1 4 1 4-1s2-3 2-1l3 1 2 1h-1c-1 0-2 0-1 1l3 1h5c1 0 2 0 1 1l1 1h4c1 0 2 1 1 2h-3" class="st0"/>
      <path id="path508" d="M2699 1292l-3 1h-4c-1-1 1-1 3-2l4 1" class="st0"/>
      <path id="path510" d="M2686 1292h-2l-2-1c1-1 3 0 4 1" class="st0"/>
      <path id="path512" d="M2654 1278l-2-1-2-1-2-1c1-1 7 0 7 2l-1 1" class="st0"/>
      <path id="path514" d="M2640 1273c-3-1-3-1 0-2 1-1 3-2 4-1l4 1c4 1 4 1-1 2h-7" class="st0"/>
      <path id="path516" d="M2621 1270c0-2 2-2 3 0l-1 1-2-1" class="st0"/>
      <path id="path518" d="M2613 1274l-2-1 1-1 2 1-1 1" class="st0"/>
      <path id="path520" d="M2602 1281l-1-2-3 1c-3 0-4-2-2-4l3 1h2c1-2 1-2 2-1 0 1 1 2 2 1 4-2 5 0 2 3s-4 3-5 1" class="st0"/>
      <path id="path522" d="M2599 1271v-2c1-1 2 0 2 1v2l-2-1" class="st0"/>
      <path id="path524" d="M2593 1275c-3-1-2-3 0-4 2 0 4 3 2 4h-2" class="st0"/>
      <path id="path526" d="M2592 1285l2 1c1 2 0 2-1 1-2-1-1 0 0 2l2 4-5-3-8-2c-3-1-4-1-5-3-1-3 3-3 4-1l1 1 4-1 6 1" class="st0"/>
      <path id="path528" d="M2589 1279l-1-2 1-1 1 1-1 2" class="st0"/>
      <path id="path530" d="M2585 1272l1-2 2 2c0 2 0 3-1 2l-2-2" class="st0"/>
      <path id="path532" d="M2581 1274l1-3c1 0 2 1 1 3s-1 2-2 0" class="st0"/>
      <path id="path534" d="M2573 1283l1 1v1l-1-2" class="st0"/>
      <path id="path536" d="M2565 1287l1-1h2l-1 1h-2" class="st0"/>
      <path id="path538" d="M2563 1300l-3-3v-1h3l2 1c1 1 0 2-2 3" class="st0"/>
      <path id="path540" d="M2551 1317c-3-1-3-1 0-1l4-3s0-1 0 0v3c-1 2-2 2-4 1" class="st0"/>
      <path id="path542" d="M2557 1328l-1-1 1-2 1 1-1 2" class="st0"/>
      <path id="path544" d="M2514 1323c-2-1-2-3-1-3l2 2c1 2 1 3-1 1" class="st0"/>
      <path id="path546" d="M2597 1647l3-2h2l-2 2h-3" class="st0"/>
      <path id="path548" d="M2609 1683l1 1-1 1-2-1 2-1" class="st0"/>
      <path id="path550" d="M2588 1611h3l-2 2h-2l1-2" class="st0"/>
      <path id="path552" d="M2505 1323h-2c1 3-2 6-4 5l-3-1c-2 1-8-5-7-7l1 1h4c4-1 14 0 14 2v2l-3-2" class="st0"/>
      <path id="path554" d="M2599 1669c1 2 1 2-1 1-1-1-2-1-1-2l2 1" class="st0"/>
      <path id="path556" d="M2479 1322l-1-1 1-1 1 1-1 1" class="st0"/>
      <path id="path558" d="M2474 1323v-2c2-2 3-2 2 1l-2 1" class="st0"/>
      <path id="path560" d="M2459 1346l-2 2c-1 1-1 0-2-2-1-3 1-6 5-7 2-1 3 3 1 5l-2 2" class="st0"/>
      <path id="path562" d="M2448 1345l-2-2h1c2 1 3 1 1 2" class="st0"/>
      <path id="path564" d="M2519 1637l-1 2c-2 0-3-2-2-4 1 0 2 0 3 2" class="st0"/>
      <path id="path566" d="M2415 1341l1-2c1-1 1 0 2 1l-1 2-2-1" class="st0"/>
      <path id="path568" d="M2402 1345l-1-1 1-2 1 1-1 2" class="st0"/>
      <path id="path570" d="M2374 1342h-1l3-1-2 1" class="st0"/>
      <path id="path572" d="M2383 1377c1 1 0 1-1 1l-1-1 1-1 1 1" class="st0"/>
      <path id="path574" d="M2379 1386c-1 1-2 0-2-1-1-1-1-2 1-1s3 2 1 2" class="st0"/>
      <path id="path576" d="M2393 1440l-4 2c-2 0-2 0 1-2 2-1 4-2 3 0" class="st0"/>
      <path id="path578" d="M2375 1403l2-1 3 1 2-1-2 2c-2 1-4 1-5-1" class="st0"/>
      <path id="path580" d="M2372 1376l-2-1h3c0 1 0 2-1 1" class="st0"/>
      <path id="path582" d="M2369 1403l1-1h3c1 1 0 2-1 2l-3-1" class="st0"/>
      <path id="path584" d="M2382 1453l1 1 1 1 1 1c-1 2-8 0-8-2l2-1h3" class="st0"/>
      <path id="path586" d="M2373 1460v-4c1-2 2 0 1 3 0 2-1 2-1 1" class="st0"/>
      <path id="path588" d="M2374 1469l2 1c1 1 1 1-1 1l-1-2" class="st0"/>
      <path id="path590" d="M2372 1478l-1 2-3-1c-1 0-1-1 1-1h3" class="st0"/>
      <path id="path592" d="M2381 1526c2 1 2 1 0 2h-3c-1-1 0-2 3-2" class="st0"/>
      <path id="path594" d="M2368 1488l2 1-1 2-2-1 1-2" class="st0"/>
      <path id="path596" d="M2369 1500c-1 3-1 3-2 1l1-3c1-1 1-1 1 2" class="st0"/>
      <path id="path598" d="M2371 1516h-1v3l-2-2-2-4-1-2 2 2 4 3" class="st0"/>
    </g>
  </g>
</svg>
